<svg width="640" height="640" viewBox="0 0 640 640" fill="none" xmlns="http://www.w3.org/2000/svg">
<g id="logo">
<g id="icon">
<g id="face">
<path d="M161.94 246.554C122.993 256.601 83.276 233.172 73.2296 194.225C63.1831 155.278 86.6117 115.561 125.559 105.514C164.506 95.4679 204.223 118.897 214.269 157.844C224.316 196.791 200.887 236.508 161.94 246.554Z" fill="#8338EC"/>
<path d="M353.112 160.586C325.292 167.762 296.923 151.027 289.747 123.208C282.571 95.3887 299.306 67.0193 327.125 59.8432C354.944 52.6672 383.314 69.4019 390.49 97.2212C397.666 125.041 380.931 153.41 353.112 160.586Z" fill="#8338EC"/>
<path d="M68.9245 376.851C46.8462 249.2 132.43 127.821 260.08 105.742C387.731 83.6641 509.111 169.248 531.189 296.898C553.267 424.549 467.684 545.929 340.033 568.007C212.382 590.085 91.0028 504.502 68.9245 376.851Z" fill="#8338EC"/>
</g>
<circle id="nose" cx="435.786" cy="396.938" r="31.2121" transform="rotate(170.187 435.786 396.938)" fill="#192139"/>
<g id="eye-right">
<circle id="large" cx="319.312" cy="312.622" r="72.8283" transform="rotate(170.187 319.312 312.622)" fill="#232343"/>
<circle id="small" cx="340.019" cy="311.821" r="20.8081" transform="rotate(170.187 340.019 311.821)" fill="#BAFF29"/>
</g>
<g id="eye-left">
<circle id="large_2" cx="489.56" cy="255.873" r="72.8283" transform="rotate(170.187 489.56 255.873)" fill="#232343"/>
<circle id="small_2" cx="510.268" cy="255.071" r="20.8081" transform="rotate(170.187 510.268 255.071)" fill="#BAFF29"/>
</g>
</g>
</g>
</svg>
